<svg id="Layer_1" data-name="Layer 1" xmlns="http://www.w3.org/2000/svg" viewBox="0 0 1231.88 450.41"><defs><style>.cls-1{fill:#fff;}.cls-2{fill:#a0a0a0;}.cls-3{fill:#666464;}.cls-4{fill:#424141;}.cls-5{fill:#f2f2f2;}</style></defs><polygon class="cls-1" points="0 229.24 129.69 0 129.69 168.13 0 229.24"/><polygon class="cls-2" points="129.69 0 129.69 168.13 259.38 229.24 129.69 0"/><polygon class="cls-1" points="0 254.78 129.69 450.41 129.69 336.41 0 254.78"/><polygon class="cls-2" points="259.38 254.78 129.69 336.41 129.69 450.41 259.38 254.78"/><polygon class="cls-3" points="0 229.24 129.69 168.13 129.69 311.29 0 229.24"/><polygon class="cls-4" points="259.38 229.24 129.69 168.13 129.69 311.29 259.38 229.24"/><path class="cls-5" d="M366.75,593.08V419.85h24.53V593.08Zm40.88,0V577.59H448.5v15.49Z" transform="translate(-19.45 -292.68)"/><path class="cls-5" d="M469,593.08V419.85h24.52V593.08Zm41-157.75V419.85h40.87v15.48Zm0,78.28V498.24h37.79v15.37Zm0,79.47V577.59h40.87v15.49Z" transform="translate(-19.45 -292.68)"/><path class="cls-5" d="M578.22,593.08V511.55h31.16L631.59,457l17.12-37.14h26.53l-72.19,142.8v30.43Zm0-92v-81.2h25.6V457.1l-2.46,43.95Zm75.58,92-23.29-55.87,14.19-25.66,34.4,81.53Z" transform="translate(-19.45 -292.68)"/><path class="cls-5" d="M699.3,593.08V419.85h24.52V593.08Zm72.34,0L749,526.82h-8V511.34h6q11.25,0,15.73-2.71c3-1.8,4.53-4.84,4.63-9.09q.46-9.85.77-18t.16-16.35q-.16-8.18-.93-17.92-.47-6.6-4.78-9.25t-15.43-2.66h-6.94V419.85h6.94q23.14,0,33.63,6.5t11.1,21.54q.61,10.19.78,18.62t0,16.14q-.17,7.68-.78,16.24-.92,19.38-19.74,25l25.14,69.19Z" transform="translate(-19.45 -292.68)"/><path class="cls-5" d="M846.91,593.08V533H839L809,419.85h25.3l11,48.94,10.18,49.58h28.08L878.84,533h-7.71v60.09Zm19-82.93,8.18-41.36,10.64-48.94h25.14l-23.6,90.3Z" transform="translate(-19.45 -292.68)"/><path class="cls-5" d="M934.83,593.08V419.85h24.52V593.08Zm40.87-67.67V509.82h5.09q11.12,0,15.58-2.71t4.94-9.2c.41-5.56.69-10.91.85-16.08s.15-10.53,0-16.13-.44-11.74-.85-18.46q-.16-6.6-4.78-9.25t-15.43-2.66h-5.4V419.85h5.4q23.14,0,33.47,6.5t11.11,21.54q.77,14.52.77,25.93t-.77,23.55q-.78,14.94-11.18,21.49t-33.71,6.55Z" transform="translate(-19.45 -292.68)"/><path class="cls-5" d="M1038.48,435.33V419.85h99.33v15.48ZM1076,593.08v-150h24.37v150Z" transform="translate(-19.45 -292.68)"/><path class="cls-5" d="M1194.73,594.37q-20.67-1.08-29.93-8.28t-9.56-22.35q-.32-16.46-.46-30.48t-.16-27.23q0-13.2.16-27.07t.46-29.66q.32-15.15,9.56-22.41t29.93-8.34v14.94q-8.18,1-11.49,4.5t-3.47,10.77q-.63,16.25-.85,30.1t-.23,26.95q0,13.11.23,27.29t.85,31.29q.15,7.14,3.47,10.61t11.49,4.43Zm17-.1V579.33q8-1,11.19-4.39t3.31-10.55q.78-16.78,1.08-30.75t.31-27.07q0-13.1-.31-27.17t-1.08-30.64q-.15-7.26-3.31-10.72t-11.19-4.44V418.66q20.2,1.08,29.23,8.39t9.64,22.25q.32,15.81.54,29.66t.24,27.07q0,13.22-.24,27.23t-.54,30.48q-.61,15-9.64,22.19T1211.69,594.27Z" transform="translate(-19.45 -292.68)"/></svg>